<svg width="34" height="24" viewBox="0 0 34 24" fill="none" xmlns="http://www.w3.org/2000/svg">
<rect width="34" height="24" fill="white"/>
<path d="M29.0444 5H4.95558C3.32326 5 2 6.30592 2 7.91686V15.0831C2 16.6941 3.32326 18 4.95558 18H29.0444C30.6767 18 32 16.6941 32 15.0831V7.91686C32 6.30592 30.6767 5 29.0444 5Z" fill="url(#paint0_linear_1799_135)"/>
<path d="M11.6611 10.1363C11.923 10.3348 12.054 10.6226 12.054 11.0001V12.6409C12.054 12.7488 12.0164 12.8402 11.9413 12.9153C11.8662 12.9904 11.7745 13.028 11.6669 13.028C11.5593 13.028 11.4743 12.9914 11.4012 12.9181C11.3281 12.845 11.2895 12.7564 11.2857 12.6523C11.1895 12.7719 11.0438 12.8719 10.8494 12.9528C10.6547 13.0338 10.4248 13.0742 10.159 13.0742C9.84712 13.0742 9.58798 12.999 9.38189 12.8488C9.1758 12.6985 9.07275 12.4752 9.07275 12.1785C9.07275 11.8435 9.20575 11.5978 9.47148 11.4417C9.73722 11.2856 10.1281 11.2077 10.6443 11.2077H11.1644V10.9995C11.1413 10.6607 10.9507 10.4912 10.5923 10.4912C10.4689 10.4912 10.3631 10.5163 10.2745 10.5663C10.186 10.6163 10.1222 10.6838 10.0839 10.7686C10.0491 10.8148 10.005 10.8516 9.95093 10.8785C9.89686 10.9054 9.84128 10.9188 9.78341 10.9188C9.67174 10.9188 9.58011 10.8803 9.50905 10.8034C9.43773 10.7265 9.4022 10.6358 9.4022 10.5318C9.4022 10.4046 9.45423 10.3064 9.55829 10.2371C9.66996 10.11 9.81717 10.0117 10.0004 9.94244C10.1834 9.87315 10.3865 9.83838 10.6101 9.83838C11.0491 9.83838 11.3997 9.93762 11.6616 10.1358M11.1644 11.7049H10.6616C10.4304 11.7049 10.2542 11.7348 10.1329 11.7945C10.0116 11.8541 9.95093 11.9612 9.95093 12.115C9.95093 12.2305 9.9961 12.3201 10.0867 12.3838C10.1771 12.4473 10.2994 12.4792 10.4537 12.4792C10.6502 12.4792 10.8149 12.4303 10.9476 12.3318C11.0806 12.2336 11.1527 12.1056 11.1644 11.9475V11.7049Z" fill="white"/>
<path d="M14.8506 12.8142C14.6001 12.9876 14.2806 13.0741 13.8915 13.0741C13.6334 13.0741 13.4032 13.0431 13.2012 12.9817C12.9989 12.92 12.8149 12.8084 12.6494 12.6467C12.5453 12.5698 12.4933 12.4868 12.4933 12.3982C12.4933 12.3675 12.5029 12.3289 12.5222 12.2827C12.5839 12.1634 12.6704 12.1035 12.7821 12.1035C12.84 12.1035 12.9034 12.1228 12.9727 12.1614C13.1306 12.2848 13.2819 12.3744 13.4263 12.4302C13.5707 12.486 13.6968 12.514 13.8047 12.514C13.955 12.514 14.0753 12.4812 14.1659 12.4157C14.2562 12.3502 14.3017 12.2675 14.3017 12.1673C14.3017 12.067 14.2534 11.9891 14.1572 11.9332C14.0611 11.8774 13.8895 11.8284 13.643 11.7858C13.2309 11.7165 12.9314 11.6124 12.7446 11.4739C12.5578 11.3353 12.4644 11.1271 12.4644 10.8497C12.4644 10.6302 12.527 10.4416 12.6522 10.2835C12.7773 10.1256 12.9458 10.0091 13.1578 9.934C13.3697 9.85888 13.6027 9.82715 13.857 9.83857C14.038 9.84238 14.2055 9.87512 14.3598 9.93679C14.5138 9.99847 14.6507 10.0736 14.7699 10.1622C14.9202 10.2508 14.9953 10.3548 14.9953 10.4741C14.9953 10.5358 14.9684 10.6033 14.9144 10.6764C14.8565 10.7535 14.7737 10.7919 14.6659 10.7919C14.5849 10.7919 14.508 10.767 14.4347 10.7167C14.3537 10.6475 14.2585 10.5858 14.1486 10.532C14.0387 10.4782 13.9281 10.451 13.8164 10.451C13.6737 10.451 13.5611 10.481 13.4783 10.5406C13.3956 10.6002 13.3542 10.6802 13.3542 10.7804C13.3542 10.8807 13.4034 10.9538 13.5014 11.0117C13.5996 11.0695 13.7605 11.1178 13.9839 11.1561C14.4192 11.2292 14.7349 11.3332 14.9314 11.468C15.1278 11.6028 15.226 11.8089 15.226 12.0863C15.226 12.3982 15.1009 12.6409 14.8504 12.8142" fill="white"/>
<path d="M16.3701 12.8749C16.1236 12.7419 15.9328 12.5544 15.798 12.3115C15.6632 12.0688 15.5957 11.7896 15.5957 11.4736C15.5957 11.1577 15.665 10.8536 15.8038 10.6069C15.9424 10.3605 16.135 10.1706 16.3815 10.0379C16.6279 9.90487 16.9112 9.83862 17.2307 9.83862C17.6774 9.83862 18.0424 9.9668 18.3257 10.2229C18.6089 10.479 18.7716 10.8267 18.814 11.2658C18.8292 11.3891 18.7947 11.497 18.7099 11.5894C18.6251 11.6818 18.5193 11.728 18.3921 11.728H16.5028C16.5066 11.9668 16.5751 12.1488 16.7079 12.2739C16.8406 12.399 17.0229 12.4617 17.2538 12.4617C17.4003 12.4617 17.5389 12.431 17.6698 12.3693C17.8008 12.3077 17.9086 12.2039 17.9934 12.0574C18.0703 11.9881 18.1533 11.9533 18.2419 11.9533C18.3536 11.9533 18.4432 11.9909 18.5107 12.066C18.5779 12.1412 18.6117 12.2287 18.6117 12.329C18.6117 12.3945 18.5952 12.4551 18.5627 12.511C18.53 12.5668 18.4807 12.612 18.4152 12.6467C18.2998 12.7853 18.1378 12.8914 17.93 12.9645C17.7218 13.0376 17.4871 13.0742 17.2251 13.0742C16.9015 13.0742 16.6165 13.0077 16.3701 12.8749ZM17.7914 10.6792C17.668 10.531 17.4812 10.4569 17.231 10.4569C17.0036 10.4569 16.8274 10.5292 16.7023 10.6736C16.5772 10.8181 16.5107 10.9962 16.5031 11.2082H17.9764C17.9764 11.0041 17.9147 10.8277 17.7916 10.6795" fill="white"/>
<path d="M19.9697 12.8749C19.7232 12.7419 19.5324 12.5544 19.3976 12.3115C19.2628 12.0688 19.1953 11.7896 19.1953 11.4736C19.1953 11.1577 19.2646 10.8536 19.4034 10.6069C19.542 10.3605 19.7347 10.1706 19.9811 10.0379C20.2275 9.90487 20.5108 9.83862 20.8303 9.83862C21.277 9.83862 21.642 9.9668 21.9253 10.2229C22.2083 10.479 22.3709 10.8267 22.4136 11.2658C22.4288 11.3891 22.3943 11.497 22.3095 11.5894C22.2248 11.6818 22.1189 11.728 21.9918 11.728H20.1024C20.1062 11.9668 20.1748 12.1488 20.3075 12.2739C20.4402 12.399 20.6225 12.4617 20.8534 12.4617C20.9999 12.4617 21.1385 12.431 21.2694 12.3693C21.4004 12.3077 21.5083 12.2039 21.593 12.0574C21.6699 11.9881 21.7529 11.9533 21.8415 11.9533C21.9532 11.9533 22.0428 11.9909 22.1103 12.066C22.1775 12.1412 22.2113 12.2287 22.2113 12.329C22.2113 12.3945 22.1948 12.4551 22.1621 12.511C22.1293 12.5668 22.0801 12.612 22.0146 12.6467C21.8991 12.7853 21.7372 12.8914 21.5293 12.9645C21.3212 13.0376 21.0864 13.0742 20.8245 13.0742C20.5009 13.0742 20.2159 13.0077 19.9694 12.8749M21.3913 10.6792C21.2679 10.531 21.0811 10.4569 20.8308 10.4569C20.6034 10.4569 20.4273 10.5292 20.3022 10.6736C20.177 10.8181 20.1105 10.9962 20.1029 11.2082H21.5763C21.5763 11.0041 21.5146 10.8277 21.3915 10.6795" fill="white"/>
<path d="M24.5892 10.3962C24.5334 10.4521 24.4651 10.48 24.3842 10.48H23.9278V12.0399C23.9278 12.2673 24.0395 12.3808 24.2628 12.3808H24.4534C24.542 12.3808 24.6171 12.4117 24.6788 12.4731C24.7405 12.5348 24.7712 12.6099 24.7712 12.6985V12.7044C24.7712 12.7891 24.7402 12.8632 24.6788 12.9267C24.6171 12.9901 24.542 13.0221 24.4534 13.0221H24.0375C23.7177 13.0221 23.477 12.9508 23.3151 12.8084C23.1534 12.666 23.0725 12.4348 23.0725 12.115V10.48H22.9801C22.907 10.48 22.8443 10.4541 22.7923 10.4021C22.7402 10.35 22.7144 10.2876 22.7144 10.2143V10.1681C22.7144 10.0912 22.7402 10.0275 22.7923 9.97746C22.8443 9.92746 22.9067 9.90233 22.9801 9.90233H23.0725V9.64801C23.0725 9.53253 23.1138 9.43329 23.1966 9.35055C23.2793 9.26781 23.3806 9.22644 23.4999 9.22644C23.6192 9.22644 23.7156 9.26781 23.8004 9.35055C23.8852 9.43355 23.9276 9.53253 23.9276 9.64801V9.90233H24.3839C24.4649 9.90233 24.5331 9.93025 24.589 9.98609C24.6448 10.0419 24.6727 10.1084 24.6727 10.1853V10.1912C24.6727 10.2721 24.6448 10.3404 24.589 10.3962" fill="white"/>
<path d="M27.7695 10.1363C28.0314 10.3348 28.1624 10.6226 28.1624 11.0001V12.6409C28.1624 12.7488 28.1248 12.8402 28.0497 12.9153C27.9746 12.9904 27.8829 13.028 27.7753 13.028C27.6677 13.028 27.5827 12.9914 27.5096 12.9181C27.4365 12.845 27.3979 12.7564 27.3941 12.6523C27.2979 12.7719 27.1522 12.8719 26.9578 12.9528C26.7631 13.0338 26.5332 13.0742 26.2674 13.0742C25.9555 13.0742 25.6964 12.999 25.4903 12.8488C25.2842 12.6985 25.1812 12.4752 25.1812 12.1785C25.1812 11.8435 25.3139 11.5978 25.5799 11.4417C25.8456 11.2856 26.2365 11.2077 26.7527 11.2077H27.2728V10.9995C27.2728 10.6641 27.0591 10.4912 26.7007 10.4912C26.5773 10.4912 26.4715 10.5163 26.3829 10.5663C26.2943 10.6163 26.2306 10.6838 26.1923 10.7686C26.1575 10.8148 26.1134 10.8516 26.0593 10.8785C26.0053 10.9054 25.9497 10.9188 25.8918 10.9188C25.7801 10.9188 25.6885 10.8803 25.6174 10.8034C25.5461 10.7265 25.5106 10.6358 25.5106 10.5318C25.5106 10.4046 25.5626 10.3064 25.6667 10.2371C25.7784 10.11 25.9256 10.0117 26.1088 9.94244C26.2918 9.87315 26.4949 9.83838 26.7185 9.83838C27.1575 9.83838 27.5075 9.93813 27.7695 10.1363ZM27.2728 11.7049H26.77C26.5388 11.7049 26.3626 11.7348 26.2413 11.7945C26.12 11.8541 26.0593 11.9612 26.0593 12.115C26.0593 12.2305 26.1045 12.3201 26.1951 12.3838C26.2855 12.4473 26.4078 12.4792 26.5621 12.4792C26.7586 12.4792 26.9233 12.4303 27.056 12.3318C27.189 12.2336 27.2611 12.1056 27.2728 11.9475V11.7049Z" fill="white"/>
<path d="M6.83447 13.5406C6.90706 13.4652 6.99614 13.4274 7.10147 13.4274C7.2068 13.4274 7.29589 13.4652 7.36848 13.5406C7.44107 13.616 7.47736 13.7066 7.47736 13.8119C7.47736 13.9173 7.44107 14.0028 7.36848 14.0769C7.29589 14.151 7.2068 14.1881 7.10147 14.1881C6.99614 14.1881 6.90706 14.151 6.83447 14.0769C6.76188 14.0028 6.72559 13.9145 6.72559 13.8119C6.72559 13.7094 6.76188 13.6163 6.83447 13.5406Z" fill="white"/>
<path d="M8.07009 12.4066C7.96324 12.2188 7.72441 12.1533 7.53659 12.2599C7.40461 12.335 7.25385 12.3746 7.10055 12.3746C6.61349 12.3746 6.21705 11.9782 6.21705 11.4911V8.39112C6.21705 8.17513 6.04192 8 5.82593 8C5.60994 8 5.43481 8.17513 5.43481 8.39112V11.4911C5.43481 12.4096 6.18202 13.1569 7.10055 13.1569C7.38913 13.1569 7.67339 13.082 7.92314 12.9398C7.92314 12.9398 7.92314 12.9398 7.92339 12.9398C8.11121 12.833 8.17669 12.5942 8.07009 12.4063" fill="white"/>
<path d="M6.21338 10.0807V11.4284C6.21566 11.4173 6.21744 11.4064 6.21871 11.3949C6.2682 10.9475 6.64561 10.6102 7.09688 10.6102C7.58419 10.6102 7.98038 11.0066 7.98038 11.4937C7.98038 11.8107 7.80881 12.1054 7.53292 12.2625C7.72074 12.1556 7.95957 12.2213 8.06642 12.4089C8.17328 12.5967 8.10754 12.8356 7.91972 12.9424C8.43977 12.6465 8.76287 12.0914 8.76287 11.4937C8.76287 10.5752 8.01566 9.82794 7.09688 9.82794C6.77353 9.82794 6.47023 9.92007 6.21338 10.0807Z" fill="url(#paint1_linear_1799_135)"/>
<defs>
<linearGradient id="paint0_linear_1799_135" x1="2" y1="11.5" x2="32" y2="11.5" gradientUnits="userSpaceOnUse">
<stop stop-color="#8885BF"/>
<stop offset="0.15" stop-color="#8589BE"/>
<stop offset="0.32" stop-color="#7F96BE"/>
<stop offset="0.49" stop-color="#74ACBC"/>
<stop offset="0.6" stop-color="#6BBFBC"/>
<stop offset="0.67" stop-color="#6BBEB6"/>
<stop offset="0.75" stop-color="#6BBEA8"/>
<stop offset="0.84" stop-color="#6BBD90"/>
<stop offset="0.93" stop-color="#6BBC6F"/>
<stop offset="1" stop-color="#6CBC51"/>
</linearGradient>
<linearGradient id="paint1_linear_1799_135" x1="6.21338" y1="11.3853" x2="8.76287" y2="11.3853" gradientUnits="userSpaceOnUse">
<stop stop-color="white" stop-opacity="0"/>
<stop offset="0.66" stop-color="white"/>
</linearGradient>
</defs>
</svg>
