<svg width="34" height="24" viewBox="0 0 34 24" fill="none" xmlns="http://www.w3.org/2000/svg">
<rect width="34" height="24" fill="white"/>
<path d="M31.999 9.09972C31.9785 9.18361 31.9594 9.2675 31.9379 9.35105C31.7363 10.1349 31.092 10.6087 30.2484 10.5872C29.9274 10.5815 29.609 10.5285 29.3035 10.4299C29.1993 10.3963 29.0683 10.4416 28.9497 10.452C28.7928 10.4654 28.6359 10.4923 28.4794 10.4926C27.0035 10.4957 25.5279 10.4963 24.0524 10.4943H23.8912C23.9281 10.251 23.9627 10.0218 23.9963 9.80036H25.8497C25.8379 9.81446 25.8473 9.80842 25.847 9.80271C25.8396 9.34971 25.8346 8.89671 25.8198 8.44371C25.8168 8.35949 25.7805 8.27359 25.7476 8.19339C25.6286 7.90548 25.4116 7.75717 25.0979 7.75717H24.2117C24.2453 7.52899 24.2718 7.32094 24.3067 7.11122C24.3122 7.09559 24.3216 7.08161 24.334 7.07063C24.3464 7.05964 24.3614 7.05202 24.3776 7.04847C24.7938 7.05619 25.2151 7.03169 25.6249 7.08975C26.2384 7.17632 26.6808 7.66589 26.788 8.31889C26.8273 8.55948 26.8303 8.80712 26.8387 9.05207C26.8467 9.28696 26.8404 9.52521 26.8404 9.77117C26.8847 9.77452 26.9207 9.77956 26.9566 9.77956C27.4901 9.77956 28.0239 9.77654 28.5573 9.78258C28.6672 9.78258 28.7092 9.7356 28.7203 9.64232C28.7271 9.57543 28.73 9.50821 28.729 9.44098V8.10782C28.729 7.58939 28.942 7.28907 29.4385 7.13471C29.6357 7.07163 29.8433 7.04411 30.0462 7.00049H30.4715C30.5028 7.01065 30.5346 7.01884 30.5669 7.02498C31.2462 7.11592 31.7427 7.54879 31.9231 8.21184C31.9513 8.31519 31.9728 8.42056 31.9977 8.52492L31.999 9.09972ZM29.6454 7.96219C29.6562 8.09272 29.6716 8.20278 29.6723 8.31352C29.6753 8.7333 29.6777 9.1524 29.6723 9.57353C29.6706 9.67688 29.7059 9.7148 29.8023 9.72117C29.9683 9.73224 30.1339 9.75473 30.3002 9.75741C30.6596 9.76446 30.8944 9.59265 30.9915 9.24804C31.0787 8.93785 31.0797 8.60982 30.9946 8.29909C30.9445 8.11051 30.8417 7.94642 30.6489 7.88401C30.2992 7.77227 29.9609 7.83938 29.6448 7.96219H29.6454Z" fill="black"/>
<path d="M23.5405 7.0612C23.5045 7.29609 23.4699 7.52058 23.433 7.76285H21.4073C21.3198 7.76151 21.2323 7.76554 21.1452 7.77493C20.8893 7.80849 20.7539 7.9662 20.7656 8.21384C20.7774 8.46148 20.9302 8.62087 21.1775 8.62791C21.4939 8.63664 21.8111 8.62791 22.1279 8.63429C22.2695 8.63565 22.4106 8.65036 22.5495 8.67825C23.0735 8.79032 23.4064 9.20943 23.3987 9.74565C23.3978 9.88348 23.3809 10.0207 23.3483 10.1547C23.2418 10.5832 22.9281 10.7899 22.5212 10.8698C22.3124 10.91 22.1001 10.93 21.8873 10.9295C20.4989 10.9325 19.1105 10.9355 17.7217 10.9221C16.856 10.9137 16.2832 10.3517 16.2339 9.48995C16.21 9.06581 16.1912 8.64066 16.3108 8.22457C16.5063 7.53669 17.0441 7.11724 17.7614 7.10516C18.1981 7.09744 18.6348 7.10516 19.0823 7.10516C19.0487 7.34441 19.0151 7.57494 18.9778 7.81889H18.4772C18.3146 7.81889 18.1517 7.81587 17.9895 7.82258C17.6955 7.83466 17.4761 7.97559 17.365 8.24538C17.3001 8.39828 17.2628 8.5614 17.2548 8.72724C17.245 9.02924 17.241 9.33694 17.2884 9.63324C17.3408 9.97684 17.5773 10.1812 17.9229 10.2037C18.3301 10.2282 18.7393 10.2215 19.1478 10.2231C20.0436 10.2263 20.9394 10.2274 21.8353 10.2265C21.9018 10.2281 21.9684 10.2236 22.0341 10.2131C22.3056 10.1624 22.4608 9.96242 22.4373 9.699C22.4137 9.43559 22.2283 9.26983 21.9495 9.2648C21.5578 9.25809 21.1654 9.26681 20.7737 9.24668C20.3084 9.22084 19.9725 8.96011 19.8526 8.56315C19.7125 8.10344 19.8405 7.61923 20.1754 7.35884C20.4441 7.1508 20.7593 7.06456 21.0871 7.05684C21.8873 7.04241 22.6879 7.04912 23.4884 7.04778C23.5061 7.05055 23.5236 7.05505 23.5405 7.0612Z" fill="black"/>
<path d="M31.999 17C31.6879 16.944 31.3775 16.8823 31.0651 16.8346C30.9784 16.8215 30.884 16.8433 30.7964 16.8598C30.4171 16.9296 30.0385 16.9749 29.6572 16.8742C29.205 16.7551 28.948 16.438 28.9326 15.9766C28.9164 15.4994 29.1372 15.1578 29.5987 15.029C29.8719 14.9528 30.1624 14.933 30.447 14.9069C30.6405 14.8887 30.837 14.9035 31.0298 14.9035C31.1236 14.5072 30.9408 14.2599 30.5468 14.2532C30.1127 14.2455 29.6962 14.3431 29.288 14.4834C29.2494 14.4968 29.2101 14.5079 29.159 14.5236C29.1254 14.2867 29.0918 14.0586 29.0552 13.8213C29.7294 13.6056 30.3989 13.4113 31.1135 13.5529C31.6345 13.6569 31.911 13.9556 31.9778 14.4794C31.9835 14.5117 31.9909 14.5438 32 14.5753L31.999 17ZM30.6838 15.4763L30.6808 15.4612C30.5011 15.4864 30.3163 15.4947 30.1433 15.5417C29.9639 15.5917 29.8806 15.7605 29.8967 15.9561C29.9108 16.1239 30.0106 16.2581 30.1917 16.2759C30.3806 16.2907 30.5706 16.2803 30.7567 16.245C31.0664 16.19 31.0664 16.1779 31.0634 15.8622C31.0634 15.7394 31.0943 15.5773 31.0298 15.5062C30.9747 15.4417 30.8037 15.4807 30.6838 15.4746V15.4763Z" fill="black"/>
<path d="M21.0549 16.8876H20.0733V14.8599C20.0746 14.7933 20.0719 14.7268 20.0652 14.6606C20.0427 14.4713 19.9201 14.3431 19.7356 14.323C19.524 14.297 19.3094 14.3338 19.1185 14.4287C19.1249 14.7038 19.135 14.9632 19.1363 15.2229C19.139 15.731 19.1363 16.239 19.1363 16.7474V16.888H18.1584V16.744C18.1584 16.1192 18.1524 15.4944 18.1584 14.8699C18.1645 14.3834 17.9465 14.2569 17.4906 14.3371C17.2171 14.3851 17.2181 14.3921 17.2181 14.6653V16.8833H16.2234V14.3089C16.2234 13.8992 16.3279 13.7606 16.7253 13.6522C17.2168 13.518 17.715 13.4509 18.2206 13.5515C18.3579 13.5837 18.4904 13.6338 18.6146 13.7005C18.6416 13.7175 18.6724 13.7274 18.7042 13.7294C18.7361 13.7313 18.7679 13.7252 18.7967 13.7116C19.2784 13.5103 19.776 13.4465 20.2876 13.5713C20.7367 13.6811 21.0179 13.9965 21.0344 14.4565C21.0576 15.0971 21.0498 15.739 21.0545 16.3803C21.0559 16.5481 21.0549 16.7138 21.0549 16.8876Z" fill="black"/>
<path d="M27.3862 13.6502V12.2804C27.3862 12.2153 27.3946 12.1704 27.4722 12.1579C27.7678 12.1106 28.0628 12.059 28.3766 12.0059V16.1668C28.3766 16.5507 28.2922 16.6681 27.9261 16.7806C27.4544 16.9262 26.9559 16.9635 26.4678 16.8896C25.7563 16.7839 25.2806 16.2487 25.2248 15.5021C25.2006 15.1816 25.2107 14.8625 25.294 14.5481C25.462 13.9173 25.9111 13.5414 26.5628 13.5294C26.7842 13.525 27.0069 13.578 27.2287 13.6072C27.2819 13.6186 27.3345 13.633 27.3862 13.6502ZM27.3862 15.2474V14.7608C27.3862 14.3146 27.3862 14.3146 26.9347 14.2746C26.5857 14.2438 26.33 14.4129 26.2427 14.7501C26.1605 15.0572 26.1612 15.3806 26.2447 15.6873C26.3378 16.0323 26.5743 16.2064 26.932 16.2C27.0395 16.198 27.1464 16.1742 27.2539 16.1665C27.3546 16.1588 27.3929 16.1168 27.3882 16.0091C27.3795 15.7548 27.3862 15.5011 27.3862 15.2474Z" fill="black"/>
<path d="M23.7141 14.9012C23.7477 14.4012 23.5922 14.2364 23.1148 14.2499C22.7201 14.2609 22.3395 14.3505 21.9676 14.478C21.9286 14.4915 21.8893 14.5029 21.8332 14.5213C21.7996 14.2978 21.7684 14.0817 21.7418 13.8646C21.7442 13.8501 21.7502 13.8364 21.7591 13.8247C21.7681 13.8129 21.7798 13.8036 21.7932 13.7975C22.3307 13.6254 22.8716 13.4744 23.4444 13.5043C23.5318 13.5083 23.6188 13.5177 23.705 13.5324C24.3497 13.6438 24.6551 13.9972 24.6605 14.6549C24.6665 15.4045 24.6605 16.1545 24.6605 16.9031C24.6605 16.9279 24.6578 16.9524 24.6557 16.9913C24.5459 16.9726 24.4397 16.9618 24.3373 16.936C23.9432 16.83 23.5296 16.8185 23.1303 16.9024C22.8342 16.9646 22.5267 16.9443 22.2414 16.8437C21.8359 16.7038 21.6162 16.4021 21.6031 15.9692C21.59 15.5277 21.7825 15.2173 22.1775 15.0508C22.4463 14.9374 22.7332 14.9082 23.0218 14.9012C23.2505 14.8968 23.479 14.9012 23.7141 14.9012ZM23.7346 15.4978C23.4487 15.4978 23.186 15.481 22.9263 15.5028C22.6912 15.5233 22.5541 15.7078 22.5656 15.9343C22.5763 16.1447 22.7288 16.3035 22.967 16.292C23.2052 16.2806 23.4417 16.2206 23.6782 16.177C23.692 16.1711 23.7042 16.162 23.7136 16.1502C23.723 16.1385 23.7293 16.1246 23.7319 16.1098C23.7349 15.9068 23.7346 15.7035 23.7346 15.4978Z" fill="black"/>
<path d="M14.6849 12.7237H2V16.9221H14.6849V12.7237Z" fill="#85B840"/>
<path d="M14.6852 7H2.00021V11.1985H14.6852V7Z" fill="#289BD7"/>
</svg>
